<svg width="15" height="10" viewBox="0 0 15 10" fill="none" xmlns="http://www.w3.org/2000/svg">
<path d="M14.25 2.25H0.75C0.551088 2.25 0.360322 2.17098 0.21967 2.03033C0.0790177 1.88968 0 1.69891 0 1.5C0 1.30109 0.0790177 1.11032 0.21967 0.96967C0.360322 0.829018 0.551088 0.75 0.75 0.75H14.25C14.4489 0.75 14.6397 0.829018 14.7803 0.96967C14.921 1.11032 15 1.30109 15 1.5C15 1.69891 14.921 1.88968 14.7803 2.03033C14.6397 2.17098 14.4489 2.25 14.25 2.25ZM11.75 5.75H3.25C3.05109 5.75 2.86032 5.67098 2.71967 5.53033C2.57902 5.38968 2.5 5.19891 2.5 5C2.5 4.80109 2.57902 4.61032 2.71967 4.46967C2.86032 4.32902 3.05109 4.25 3.25 4.25H11.75C11.9489 4.25 12.1397 4.32902 12.2803 4.46967C12.421 4.61032 12.5 4.80109 12.5 5C12.5 5.19891 12.421 5.38968 12.2803 5.53033C12.1397 5.67098 11.9489 5.75 11.75 5.75ZM8.75 9.25H6.25C6.05109 9.25 5.86032 9.17098 5.71967 9.03033C5.57902 8.88968 5.5 8.69891 5.5 8.5C5.5 8.30109 5.57902 8.11032 5.71967 7.96967C5.86032 7.82902 6.05109 7.75 6.25 7.75H8.75C8.94891 7.75 9.13968 7.82902 9.28033 7.96967C9.42098 8.11032 9.5 8.30109 9.5 8.5C9.5 8.69891 9.42098 8.88968 9.28033 9.03033C9.13968 9.17098 8.94891 9.25 8.75 9.25Z" fill="#575757"/>
</svg>
